# xmcd CD database file
# Copyright (C) 1993-1996 Ti Kan
#
# Track frame offsets:
#	183
#	16140
#	33273
#	49308
#	62920
#	75413
#	86835
#	99555
#	114773
#	128665
#	139975
#	152548
#	166985
#	178470
#	192130
#	203448
#	216018
#	229688
#	241655
#	255425
#	266823
#	281328
#	295103
#	307355
#	322073
#
# Disc length: 4474 seconds
#
# Revision: 1
# Processed by: cddbd v1.4b41PL1 Copyright (c) Steve Scherf et al.
# Submitted via: CDValet v3.01 - Copyright (c) 1997 Greg Leichner
#
DISCID=5c117819
DTITLE=Various Artist - Synthesizer Collection - Vol. 4
DYEAR=1900
DGENRE=
TTITLE0=Memory Moments
TTITLE1=Equinoxe
TTITLE2=Twin Peaks
TTITLE3=Lily Was Here
TTITLE4=Sailing
TTITLE5=Do You Remember
TTITLE6=Magic Fly
TTITLE7=Falling In Love
TTITLE8=I Hear You Now
TTITLE9=L'Opera Sauvage
TTITLE10=Where Do Broken Hearts Go
TTITLE11=Moments In Love
TTITLE12=Mammagamma
TTITLE13=You Got It
TTITLE14=Hymne
TTITLE15=Cry For Help
TTITLE16=Eric's Theme
TTITLE17=On Golden Pond
TTITLE18=Hijo De La Luna
TTITLE19=Tattoo
TTITLE20=Nobody Wins
TTITLE21=Rotations Logic
TTITLE22=Sacrifice
TTITLE23=Can't Stay Away From You
TTITLE24=Apocalypse Des Animaux
EXTD=
EXTT0=
EXTT1=
EXTT2=
EXTT3=
EXTT4=
EXTT5=
EXTT6=
EXTT7=
EXTT8=
EXTT9=
EXTT10=
EXTT11=
EXTT12=
EXTT13=
EXTT14=
EXTT15=
EXTT16=
EXTT17=
EXTT18=
EXTT19=
EXTT20=
EXTT21=
EXTT22=
EXTT23=
EXTT24=
PLAYORDER=
